<mxfile host="65bd71144e">
    <diagram id="aK2xaaVZTM_bUIb-IGDT" name="Page-1">
        <mxGraphModel dx="-23" dy="944" grid="1" gridSize="10" guides="1" tooltips="1" connect="1" arrows="1" fold="1" page="1" pageScale="1" pageWidth="1654" pageHeight="1169" math="0" shadow="0">
            <root>
                <mxCell id="0"/>
                <mxCell id="1" parent="0"/>
                <mxCell id="7" value="" style="rounded=0;whiteSpace=wrap;html=1;" vertex="1" parent="1">
                    <mxGeometry x="1658" width="1646" height="1160" as="geometry"/>
                </mxCell>
                <mxCell id="13" value="Back" style="rounded=1;whiteSpace=wrap;html=1;fontSize=36;align=center;spacingRight=51;" vertex="1" parent="1">
                    <mxGeometry x="2865" y="50" width="293" height="90" as="geometry"/>
                </mxCell>
                <mxCell id="14" value="Game title" style="text;html=1;strokeColor=none;fillColor=none;align=center;verticalAlign=middle;whiteSpace=wrap;rounded=0;fontSize=55;" vertex="1" parent="1">
                    <mxGeometry x="2245" y="80" width="471.5" height="160" as="geometry"/>
                </mxCell>
                <mxCell id="15" value="" style="html=1;verticalLabelPosition=bottom;align=center;labelBackgroundColor=#ffffff;verticalAlign=top;strokeWidth=2;strokeColor=#0080F0;shadow=0;dashed=0;shape=mxgraph.ios7.icons.user;" vertex="1" parent="1">
                    <mxGeometry x="1804" y="50" width="100" height="100" as="geometry"/>
                </mxCell>
                <mxCell id="16" value="Profile name" style="text;html=1;strokeColor=none;fillColor=none;align=center;verticalAlign=middle;whiteSpace=wrap;rounded=0;fontSize=33;" vertex="1" parent="1">
                    <mxGeometry x="1912" y="90" width="250" height="30" as="geometry"/>
                </mxCell>
                <mxCell id="17" value="" style="html=1;verticalLabelPosition=bottom;align=center;labelBackgroundColor=#ffffff;verticalAlign=top;strokeWidth=2;strokeColor=#0080F0;shadow=0;dashed=0;shape=mxgraph.ios7.icons.back;fontSize=55;" vertex="1" parent="1">
                    <mxGeometry x="3045" y="65" width="70" height="60" as="geometry"/>
                </mxCell>
                <mxCell id="19" value="" style="rounded=1;whiteSpace=wrap;html=1;" vertex="1" parent="1">
                    <mxGeometry x="1850.5" y="250" width="456" height="460" as="geometry"/>
                </mxCell>
                <mxCell id="20" value="&lt;h1 style=&quot;font-size: 33px&quot;&gt;&lt;span style=&quot;font-weight: normal&quot;&gt;Lorem ipsum dolor sit amet, consectetur adipisicing elit, sed do eiusmod tempor incididunt ut labore et dolore magna aliqua.&lt;/span&gt;&lt;br&gt;&lt;/h1&gt;&lt;div&gt;&lt;h1 style=&quot;font-size: 33px&quot;&gt;&lt;span style=&quot;font-weight: normal&quot;&gt;Lorem ipsum dolor sit amet, consectetur adipisicing elit, sed do eiusmod tempor incididunt ut labore et dolore magna aliqua.&lt;/span&gt;&lt;/h1&gt;&lt;/div&gt;" style="text;html=1;strokeColor=none;fillColor=none;spacing=5;spacingTop=-20;whiteSpace=wrap;overflow=hidden;rounded=0;strokeWidth=10;fontSize=33;" vertex="1" parent="1">
                    <mxGeometry x="2435" y="250" width="680" height="330" as="geometry"/>
                </mxCell>
                <mxCell id="21" value="Year: 2000&lt;br&gt;IMDB score: 7.0" style="text;html=1;strokeColor=none;fillColor=none;align=left;verticalAlign=middle;whiteSpace=wrap;rounded=0;fontSize=33;" vertex="1" parent="1">
                    <mxGeometry x="2435" y="570" width="635" height="150" as="geometry"/>
                </mxCell>
                <mxCell id="22" value="" style="rounded=1;whiteSpace=wrap;html=1;fontSize=33;strokeWidth=10;" vertex="1" parent="1">
                    <mxGeometry x="1855" y="830" width="530" height="300" as="geometry"/>
                </mxCell>
                <mxCell id="26" value="" style="rounded=1;whiteSpace=wrap;html=1;fontSize=33;strokeWidth=10;" vertex="1" parent="1">
                    <mxGeometry x="2580" y="830" width="535" height="300" as="geometry"/>
                </mxCell>
                <mxCell id="28" value="Trailer" style="text;html=1;strokeColor=none;fillColor=none;align=center;verticalAlign=middle;whiteSpace=wrap;rounded=0;fontSize=33;" vertex="1" parent="1">
                    <mxGeometry x="1935" y="790" width="370" height="30" as="geometry"/>
                </mxCell>
                <mxCell id="29" value="Gameplay" style="text;html=1;strokeColor=none;fillColor=none;align=center;verticalAlign=middle;whiteSpace=wrap;rounded=0;fontSize=33;" vertex="1" parent="1">
                    <mxGeometry x="2662.5" y="790" width="370" height="30" as="geometry"/>
                </mxCell>
                <mxCell id="30" value="" style="html=1;verticalLabelPosition=bottom;align=center;labelBackgroundColor=#ffffff;verticalAlign=top;strokeWidth=2;strokeColor=#0080F0;shadow=0;dashed=0;shape=mxgraph.ios7.icons.video_conversation;fontSize=33;" vertex="1" parent="1">
                    <mxGeometry x="2020" y="930" width="200" height="100" as="geometry"/>
                </mxCell>
                <mxCell id="31" value="" style="html=1;verticalLabelPosition=bottom;align=center;labelBackgroundColor=#ffffff;verticalAlign=top;strokeWidth=2;strokeColor=#0080F0;shadow=0;dashed=0;shape=mxgraph.ios7.icons.video_conversation;fontSize=33;" vertex="1" parent="1">
                    <mxGeometry x="2747.5" y="930" width="200" height="100" as="geometry"/>
                </mxCell>
                <mxCell id="32" value="" style="html=1;verticalLabelPosition=bottom;align=center;labelBackgroundColor=#ffffff;verticalAlign=top;strokeWidth=2;strokeColor=#0080F0;shadow=0;dashed=0;shape=mxgraph.ios7.icons.help;fontSize=33;" vertex="1" parent="1">
                    <mxGeometry x="1957.75" y="365" width="241.5" height="230" as="geometry"/>
                </mxCell>
                <mxCell id="34" value="Favorite" style="rounded=1;whiteSpace=wrap;html=1;fontSize=36;align=center;spacingRight=51;" vertex="1" parent="1">
                    <mxGeometry x="2770" y="600" width="293" height="90" as="geometry"/>
                </mxCell>
                <mxCell id="35" value="" style="html=1;verticalLabelPosition=bottom;align=center;labelBackgroundColor=#ffffff;verticalAlign=top;strokeWidth=2;strokeColor=#0080F0;shadow=0;dashed=0;shape=mxgraph.ios7.icons.star;fontSize=33;" vertex="1" parent="1">
                    <mxGeometry x="2967.5" y="613.75" width="65" height="62.5" as="geometry"/>
                </mxCell>
            </root>
        </mxGraphModel>
    </diagram>
</mxfile>